<svg viewBox="0 0 256 199" xmlns="http://www.w3.org/2000/svg">
  <path d="M216.856 16.597C200.285 8.843 182.566 3.208 164.042 0c-2.275 4.113-4.933 9.645-6.766 14.046-19.692-2.961-39.203-2.961-58.533 0C96.911 9.645 94.193 4.113 91.897 0 73.353 3.208 55.613 8.864 39.042 16.638 5.618 67.147-3.443 116.401 1.087 164.956c22.169 16.555 43.653 26.612 64.775 33.193 5.215-7.177 9.866-14.807 13.873-22.849-7.631-2.899-14.94-6.478-21.846-10.632 1.832-1.357 3.624-2.777 5.355-4.237 42.123 19.702 87.89 19.702 129.51 0 1.752 1.46 3.544 2.88 5.356 4.237-6.927 4.175-14.256 7.753-21.887 10.653 4.007 8.02 8.638 15.671 13.873 22.848 21.142-6.581 42.646-16.637 64.815-33.213 5.316-56.287-9.081-105.089-38.056-148.359ZM85.474 135.095c-12.645 0-23.015-11.805-23.015-26.18s10.148-26.2 23.015-26.2c12.866 0 23.236 11.804 23.014 26.2 0 14.375-10.168 26.18-23.014 26.18Zm85.051 0c-12.645 0-23.015-11.805-23.015-26.18s10.148-26.2 23.015-26.2c12.866 0 23.236 11.804 23.014 26.2 0 14.375-10.148 26.18-23.014 26.18Z" fill="#5865F2"/>
</svg>
