<svg viewBox="0 0 48 34" xmlns="http://www.w3.org/2000/svg">
  <path d="M47.52 7.334s-.469-3.331-1.908-4.798C43.787.61 41.74.601 40.803.49 34.086 0 24.01 0 24.01 0h-.021S13.914 0 7.197.49c-.939.111-2.983.12-4.81 2.046C.949 4.003.48 7.334.48 7.334S0 11.247 0 15.158v3.668c0 3.912.48 7.823.48 7.823s.469 3.331 1.907 4.798c1.827 1.926 4.225 1.866 5.293 2.067 3.84.371 16.32.486 16.32.486s10.086-.015 16.803-.505c.937-.113 2.984-.122 4.809-2.048 1.439-1.467 1.908-4.798 1.908-4.798s.48-3.911.48-7.823v-3.668c0-3.911-.48-7.824-.48-7.824ZM19.042 23.27V9.688l12.969 6.814-12.969 6.768Z" fill="#CE1312"/>
</svg>
