<?xml version="1.0" encoding="UTF-8"?>
<svg version="1.1" xmlns="http://www.w3.org/2000/svg" width="256" height="256">
<path d="M0 0 C1.21515356 -0.00445668 1.21515356 -0.00445668 2.45485568 -0.0090034 C5.1847375 -0.01771411 7.91457558 -0.01920065 10.64447021 -0.02069092 C12.59559727 -0.02531746 14.54672342 -0.03034189 16.49784851 -0.03573608 C21.80994666 -0.04887891 27.12203215 -0.05530884 32.43414402 -0.05974674 C35.75123071 -0.06267476 39.06831392 -0.06677908 42.38539886 -0.07125092 C52.75871237 -0.08493153 63.13201795 -0.09459511 73.50533986 -0.09845281 C85.48893697 -0.10293347 97.47242002 -0.12047943 109.45598245 -0.1494534 C118.71209328 -0.17105764 127.96817199 -0.18115644 137.22430778 -0.18249393 C142.75552229 -0.18354296 148.28662967 -0.18947162 153.81781769 -0.20731354 C159.02163872 -0.22377218 164.22527182 -0.22596042 169.42910957 -0.21717453 C171.3390891 -0.21640294 173.24907864 -0.22076287 175.15903282 -0.23063278 C177.76697234 -0.24331904 180.37424298 -0.23749361 182.98217773 -0.22705078 C183.73763516 -0.23510719 184.49309258 -0.24316359 185.27144265 -0.25146413 C190.00427651 -0.20715633 193.22403036 0.64376749 197.24505615 3.14044189 C201.00108411 7.20947218 203.49691487 10.83005039 203.49115181 16.44327164 C203.49513391 17.30118435 203.499116 18.15909707 203.50321877 19.04300714 C203.49739309 19.98074715 203.4915674 20.91848717 203.48556519 21.88464355 C203.48727404 22.88444803 203.48898288 23.88425251 203.49074352 24.91435409 C203.49404516 28.27396864 203.4830235 31.63338472 203.47210693 34.99298096 C203.47154297 37.39748123 203.4718591 39.80198186 203.47299194 42.20648193 C203.4734478 47.38806334 203.46776461 52.56959964 203.45651627 57.7511673 C203.44026364 65.24284411 203.4350535 72.73449657 203.43254028 80.22618911 C203.42816281 92.38088874 203.41485228 104.53556153 203.39593506 116.69024658 C203.37757762 128.4975369 203.36344338 140.3048199 203.35491943 152.11212158 C203.35438344 152.84732033 203.35384744 153.58251908 203.35329521 154.33999658 C203.34866953 160.73514685 203.34436392 167.13029733 203.3400898 173.52544785 C203.32126977 201.06380446 203.28142909 228.60208992 203.24505615 256.14044189 C140.87505615 256.14044189 78.50505615 256.14044189 14.24505615 256.14044189 C14.24505615 187.17044189 14.24505615 118.20044189 14.24505615 47.14044189 C3.35505615 47.14044189 -7.53494385 47.14044189 -18.75494385 47.14044189 C-18.84701756 42.12242462 -18.92657581 37.10736286 -18.97467041 32.08917236 C-18.99472754 30.38399296 -19.02198042 28.67888184 -19.05670166 26.97393799 C-19.10548246 24.51624665 -19.12797103 22.05946823 -19.14556885 19.60137939 C-19.16621399 18.84489105 -19.18685913 18.08840271 -19.20812988 17.30899048 C-19.21030409 12.12547193 -18.13616212 9.2739851 -14.75494385 5.14044189 C-9.65917159 0.6513092 -6.64101763 -0.00752809 0 0 Z " fill="#FCFCFC" transform="translate(18.75494384765625,-0.14044189453125)"/>
<path d="M0 0 C9.3692605 8.48152 12.16195636 25.08389506 12.81335449 37.21472168 C13.22543502 47.11034248 13.12002263 57.01839325 13.01134014 66.91935635 C12.96557027 71.90966076 12.96973981 76.89996278 12.96734619 81.89044189 C12.95635322 90.24159552 12.91184682 98.59199661 12.84375 106.94287109 C12.7565557 117.65742065 12.7260126 128.37137298 12.7127037 139.08623886 C12.70077531 148.33507212 12.66332159 157.58377622 12.62166309 166.83251667 C12.60938962 169.79334786 12.6006024 172.75417457 12.59227753 175.71501923 C12.57759766 180.35457135 12.54698764 184.99376168 12.50396347 189.63313484 C12.49041075 191.33388313 12.48188229 193.03467997 12.47874069 194.73547935 C12.47349228 197.05584674 12.44982098 199.3753138 12.42132568 201.69549561 C12.4079397 203.64201082 12.4079397 203.64201082 12.39428329 205.62784958 C11.97317604 209.22941478 11.15949108 211.12149718 9 214 C4.99663535 216.68797341 0.65990055 216.81427328 -4 216 C-7.07061968 214.28631391 -9.40450726 212.19098548 -11 209 C-11.11621819 206.70689542 -11.16605616 204.41035759 -11.18754578 202.1144104 C-11.19545586 201.39741797 -11.20336594 200.68042554 -11.21151572 199.94170606 C-11.23668543 197.52577387 -11.25452749 195.10984543 -11.2722168 192.69384766 C-11.28830005 190.96560397 -11.30467985 189.23736303 -11.32133484 187.50912476 C-11.46679486 171.63293386 -11.54130646 155.7559423 -11.60025311 139.87922096 C-11.64457992 128.16881435 -11.72124748 116.45959975 -11.84183758 104.74972498 C-11.92394516 96.49286294 -11.96650613 88.23632161 -11.98155528 79.97906911 C-11.99161575 75.06358782 -12.01804496 70.14960317 -12.08786583 65.23457718 C-12.40189673 42.15047139 -11.57626516 22.00500604 -1 1 C-0.67 0.67 -0.34 0.34 0 0 Z " fill="#FF882E" transform="translate(244,40)"/>
<path d="M0 0 C62.37 0 124.74 0 189 0 C189 3.3 189 6.6 189 10 C126.63 10 64.26 10 0 10 C0 6.7 0 3.4 0 0 Z " fill="#F0F0F0" transform="translate(33,246)"/>
<path d="M0 0 C1.17113799 0.00138269 1.17113799 0.00138269 2.36593533 0.00279331 C3.70584782 0.00073132 3.70584782 0.00073132 5.07282925 -0.00137234 C6.55420376 0.00402058 6.55420376 0.00402058 8.06550503 0.00952244 C9.09952953 0.00937641 10.13355404 0.00923038 11.19891262 0.00907993 C14.63485175 0.00977956 18.07073742 0.01757425 21.50666714 0.02539158 C23.88178382 0.02725558 26.25690089 0.02867957 28.63201809 0.0296793 C34.89727233 0.03350586 41.16250356 0.04333732 47.42774868 0.05438328 C53.81537979 0.06459443 60.2030146 0.06917628 66.59065151 0.0742197 C79.13428115 0.08495947 91.6778948 0.10184656 104.22151089 0.12304783 C105.08863494 2.96090836 105.41754068 4.58226377 104.39425564 7.40518284 C100.79781768 10.24868061 96.90595402 9.66155862 92.45759487 9.60888767 C90.95482998 9.61458271 90.95482998 9.61458271 89.4217062 9.6203928 C86.103356 9.62781481 82.78587729 9.60639361 79.46760464 9.58398533 C77.16739918 9.58160198 74.86719176 9.58069535 72.56698513 9.58120823 C67.74410236 9.57807747 62.92151629 9.5614895 58.09870815 9.53466892 C51.90536898 9.50066979 45.71235581 9.4930407 39.51893425 9.49455929 C34.7689898 9.49401642 30.01911714 9.48306296 25.26919651 9.4685564 C22.98495496 9.46217611 20.70070525 9.45824665 18.41645527 9.45676899 C15.22950553 9.45245014 12.04290709 9.43498018 8.85603237 9.41357517 C7.4291988 9.41493473 7.4291988 9.41493473 5.97354031 9.41632175 C5.10846859 9.40779179 4.24339687 9.39926182 3.35211086 9.39047337 C2.59829349 9.38712168 1.84447611 9.38376999 1.06781578 9.38031673 C-0.77848911 9.12304783 -0.77848911 9.12304783 -2.77848911 7.12304783 C-2.96598911 4.06054783 -2.96598911 4.06054783 -2.77848911 1.12304783 C-1.77848911 0.12304783 -1.77848911 0.12304783 0 0 Z " fill="#0A0A0A" transform="translate(86.778489112854,92.87695217132568)"/>
<path d="M0 0 C0.86507172 -0.00563965 1.73014343 -0.0112793 2.62142944 -0.01708984 C3.57265182 -0.01304138 4.52387421 -0.00899292 5.50392151 -0.00482178 C6.50401245 -0.00832642 7.50410339 -0.01183105 8.53450012 -0.01544189 C11.85323449 -0.02427224 15.17175709 -0.01840497 18.49049377 -0.01165771 C20.7897343 -0.0130041 23.08897456 -0.0149444 25.38821411 -0.01745605 C30.2127808 -0.02040918 35.03727355 -0.01610401 39.86183167 -0.0067749 C46.05395877 0.00461329 52.24591239 -0.00193472 58.4380331 -0.01391983 C63.18800163 -0.02113879 67.93792888 -0.01885021 72.68789864 -0.01366425 C74.97131941 -0.01232752 77.25474389 -0.01397626 79.53816032 -0.01862335 C82.72736952 -0.02368841 85.91629593 -0.01597817 89.10548401 -0.00482178 C90.05468216 -0.00887024 91.00388031 -0.0129187 91.98184204 -0.01708984 C92.84973358 -0.0114502 93.71762512 -0.00581055 94.61181641 0 C95.36601081 0.00075405 96.12020521 0.0015081 96.89725399 0.002285 C98.86940002 0.25396729 98.86940002 0.25396729 101.86940002 2.25396729 C100.99440002 8.12896729 100.99440002 8.12896729 99.86940002 9.25396729 C98.52065948 9.35358129 97.16677245 9.38471124 95.81436157 9.38768005 C94.94080521 9.39194504 94.06724884 9.39621002 93.16722107 9.40060425 C92.20148163 9.40015106 91.23574219 9.39969788 90.24073792 9.39923096 C88.72378075 9.40426888 88.72378075 9.40426888 87.17617798 9.40940857 C83.81479177 9.41895037 80.4534552 9.42086328 77.09205627 9.42193604 C74.76657083 9.42514631 72.44108559 9.4285102 70.11560059 9.43202209 C65.23380566 9.43802142 60.35202846 9.43986117 55.4702301 9.43927002 C49.20063981 9.43916834 42.93116262 9.45282323 36.66159916 9.47004223 C31.85677565 9.48113556 27.05197971 9.48319005 22.2471447 9.48266029 C19.93498278 9.48384434 17.62282024 9.48828971 15.31067085 9.49599266 C12.08285114 9.50573909 8.85527998 9.50293576 5.62745667 9.49688721 C4.66374146 9.50250671 3.70002625 9.50812622 2.70710754 9.51391602 C1.83073135 9.50972153 0.95435516 9.50552704 0.05142212 9.50120544 C-1.09426192 9.5020226 -1.09426192 9.5020226 -2.26309109 9.50285625 C-4.13059998 9.25396729 -4.13059998 9.25396729 -6.13059998 7.25396729 C-6.38059998 4.75396729 -6.38059998 4.75396729 -6.13059998 2.25396729 C-3.74149375 -0.13513894 -3.25070021 0.00325171 0 0 Z " fill="#000000" transform="translate(90.13059997558594,164.74603271484375)"/>
<path d="M0 0 C0.87493103 -0.00563965 1.74986206 -0.0112793 2.65130615 -0.01708984 C4.0945224 -0.01101715 4.0945224 -0.01101715 5.56689453 -0.00482178 C7.08407074 -0.01007874 7.08407074 -0.01007874 8.63189697 -0.01544189 C11.9879027 -0.02427165 15.34369902 -0.01840562 18.69970703 -0.01165771 C21.02376343 -0.01300401 23.34781956 -0.01494423 25.671875 -0.01745605 C30.54771602 -0.02040901 35.42348387 -0.01610415 40.29931641 -0.0067749 C46.56104354 0.00461967 52.82259923 -0.00193888 59.08432007 -0.01391983 C63.88486023 -0.02113379 68.68535951 -0.01885263 73.48590088 -0.01366425 C75.79526795 -0.01232646 78.10463868 -0.01397993 80.41400146 -0.01862335 C83.63694142 -0.02368094 86.85960058 -0.01598907 90.08251953 -0.00482178 C91.0446637 -0.00887024 92.00680786 -0.0129187 92.99810791 -0.01708984 C94.31050446 -0.00863037 94.31050446 -0.00863037 95.64941406 0 C96.4119046 0.00075405 97.17439514 0.0015081 97.95999146 0.002285 C99.82470703 0.25396729 99.82470703 0.25396729 101.82470703 2.25396729 C101.57470703 5.31646729 101.57470703 5.31646729 100.82470703 8.25396729 C98.52864638 9.40199761 97.24027442 9.38201436 94.68737793 9.38768005 C93.38760262 9.39407753 93.38760262 9.39407753 92.06156921 9.40060425 C91.10877579 9.40015106 90.15598236 9.39969788 89.17431641 9.39923096 C88.17261917 9.40258957 87.17092194 9.40594818 86.13887024 9.40940857 C82.81538669 9.41893668 79.4919534 9.42086251 76.16845703 9.42193604 C73.86682107 9.42514693 71.56518532 9.42851087 69.2635498 9.43202209 C64.43480964 9.43801775 59.60608738 9.43986151 54.77734375 9.43927002 C48.57616292 9.43916828 42.37509629 9.45283052 36.17394257 9.47004223 C31.41973335 9.48113473 26.66555201 9.48319009 21.91133118 9.48266029 C19.624289 9.48384419 17.33724618 9.48828868 15.05021667 9.49599266 C11.85842776 9.50573872 8.66689021 9.50293607 5.47509766 9.49688721 C4.52230423 9.50250671 3.5695108 9.50812622 2.58784485 9.51391602 C1.28806953 9.50762428 1.28806953 9.50762428 -0.03796387 9.50120544 C-0.79308006 9.50175021 -1.54819626 9.50229498 -2.32619476 9.50285625 C-4.17529297 9.25396729 -4.17529297 9.25396729 -6.17529297 7.25396729 C-6.42529297 4.75396729 -6.42529297 4.75396729 -6.17529297 2.25396729 C-3.77749916 -0.14382652 -3.26689476 0.00323074 0 0 Z " fill="#030303" transform="translate(90.17529296875,140.74603271484375)"/>
<path d="M0 0 C0.87493103 -0.00426498 1.74986206 -0.00852997 2.65130615 -0.01292419 C4.0945224 -0.01224442 4.0945224 -0.01224442 5.56689453 -0.0115509 C6.57834534 -0.01490952 7.58979614 -0.01826813 8.63189697 -0.02172852 C11.98784602 -0.03125687 15.34374529 -0.03318247 18.69970703 -0.03425598 C21.02376323 -0.03746686 23.34781923 -0.0408308 25.671875 -0.04434204 C30.54769357 -0.05033776 35.42349441 -0.05218145 40.29931641 -0.05158997 C46.56103094 -0.05148823 52.82263237 -0.06515044 59.08432007 -0.08236217 C63.88485237 -0.09345455 68.68535707 -0.09551004 73.48590088 -0.09498024 C75.79527171 -0.09616415 78.10464318 -0.10060876 80.41400146 -0.10831261 C83.6369226 -0.11805841 86.85959479 -0.11525611 90.08251953 -0.10920715 C91.0446637 -0.11482666 92.00680786 -0.12044617 92.99810791 -0.12623596 C94.31050446 -0.11994423 94.31050446 -0.11994423 95.64941406 -0.11352539 C96.4119046 -0.11407016 97.17439514 -0.11461493 97.95999146 -0.1151762 C99.82470703 0.13371277 99.82470703 0.13371277 101.82470703 2.13371277 C101.63720703 4.63371277 101.63720703 4.63371277 100.82470703 7.13371277 C97.73450466 9.19384768 97.0963128 9.38415502 93.60508728 9.38768005 C92.74560989 9.3933197 91.88613251 9.39895935 91.00061035 9.4047699 C90.06076294 9.40072144 89.12091553 9.39667297 88.15258789 9.39250183 C87.1604982 9.39600647 86.16840851 9.39951111 85.14625549 9.40312195 C81.86061649 9.41193854 78.57519205 9.40609074 75.28955078 9.39933777 C73.0117641 9.40068433 70.73397771 9.40262479 68.45619202 9.40513611 C63.68048366 9.40808719 58.90485007 9.4037898 54.12915039 9.39445496 C47.99636614 9.38305403 41.86375681 9.38962413 35.73097897 9.40159988 C31.02737602 9.40881338 26.32381482 9.40653301 21.62021065 9.4013443 C19.35829205 9.40000672 17.09636971 9.40165927 14.83445549 9.40630341 C11.67867813 9.41136093 8.52318754 9.40366952 5.36743164 9.39250183 C3.95462418 9.39857452 3.95462418 9.39857452 2.51327515 9.4047699 C1.65661758 9.39913025 0.79996002 9.3934906 -0.08265686 9.38768005 C-0.82909989 9.386926 -1.57554293 9.38617195 -2.34460545 9.38539505 C-4.17529297 9.13371277 -4.17529297 9.13371277 -6.17529297 7.13371277 C-6.30029297 4.00871277 -6.30029297 4.00871277 -6.17529297 1.13371277 C-3.87011157 -0.01887793 -2.56428588 0.00563593 0 0 Z " fill="#070707" transform="translate(90.17529296875,116.86628723144531)"/>
<path d="M0 0 C2.5625 1.1875 2.5625 1.1875 4 3 C4.25 5.6875 4.25 5.6875 4 8 C2.34385343 8.38218767 0.67542976 8.71395102 -1 9 C-1.33 8.67 -1.66 8.34 -2 8 C-3.66617115 7.95936168 -5.33388095 7.957279 -7 8 C-7.48987856 10.68912063 -7.33241129 12.45162535 -5.90722656 14.80273438 C-4.36782074 16.83676558 -2.76798514 18.79872016 -1.125 20.75 C-0.56941406 21.43449219 -0.01382813 22.11898437 0.55859375 22.82421875 C3.35247797 26.42459066 3.35247797 26.42459066 7 29 C7.66 27.68 8.32 26.36 9 25 C10.32 25.33 11.64 25.66 13 26 C13.625 27.8125 13.625 27.8125 14 30 C13.34 30.99 12.68 31.98 12 33 C12.01131255 35.26444488 12.01131255 35.26444488 12.4375 37.625 C12.66089867 39.07826715 12.85715985 40.53661726 13 42 C12.67 42.33 12.34 42.66 12 43 C10.741875 42.979375 9.48375 42.95875 8.1875 42.9375 C4.96978828 42.87345823 4.96978828 42.87345823 2 44 C-2.53294625 46.26647313 -7.15039051 45.26904301 -11.75 43.8125 C-16.19283595 41.33476457 -18.39509106 38.81472682 -20 34 C-20.5258402 30.12380649 -20.87318997 26.49182286 -18.84765625 23.03125 C-17.92270832 21.86289472 -16.98934809 20.7011398 -16.046875 19.546875 C-14.74252913 17.96439261 -14.74252913 17.96439261 -15.1875 15.5 C-15.455625 14.675 -15.72375 13.85 -16 13 C-16.50334036 9.53953503 -16.81721855 7.16818701 -14.75390625 4.21875 C-10.28269153 -0.15952954 -6.11338401 -1.18018996 0 0 Z " fill="#0A0A0A" transform="translate(128,24)"/>
<path d="M0 0 C1.06451134 0.00607269 1.06451134 0.00607269 2.15052795 0.01226807 C2.89863235 0.00876343 3.64673676 0.00525879 4.41751099 0.00164795 C6.89696967 -0.00717377 9.37614436 -0.00131876 11.85560608 0.00543213 C13.57431595 0.0040856 15.29302545 0.00214518 17.01173401 -0.00036621 C20.61646648 -0.00331807 24.22109994 0.00098212 27.82582092 0.01031494 C32.45314668 0.02170954 37.08024044 0.01515039 41.70755768 0.00317001 C45.2573777 -0.00404694 48.80714245 -0.00176142 52.35696411 0.0034256 C54.06345649 0.00476255 55.76995385 0.00311278 57.47644043 -0.00153351 C59.85882413 -0.00659609 62.24082883 0.00110747 64.6231842 0.01226807 C65.33285843 0.0082196 66.04253265 0.00417114 66.77371216 0 C71.65832702 0.04252807 71.65832702 0.04252807 73.88685608 2.27105713 C73.63685608 5.33355713 73.63685608 5.33355713 72.88685608 8.27105713 C69.93696855 9.74600089 66.94897057 9.41841355 63.71498108 9.4163208 C62.97663025 9.41967941 62.23827942 9.42303802 61.47755432 9.42649841 C59.03063792 9.43601751 56.58378986 9.43795188 54.13685608 9.43902588 C52.44056672 9.44223735 50.74427765 9.44560133 49.04798889 9.44911194 C45.49036517 9.45510529 41.93276575 9.45695158 38.37513733 9.45635986 C33.80836194 9.45625813 29.24174164 9.46992128 24.67500305 9.48713207 C21.17151671 9.49822927 17.66806816 9.50027979 14.16456604 9.49975014 C12.48039718 9.50093328 10.79622744 9.50537367 9.11207581 9.5130825 C6.76084902 9.52283837 4.4099629 9.52002221 2.05873108 9.51397705 C1.00824585 9.52240631 1.00824585 9.52240631 -0.0634613 9.53100586 C-4.88482676 9.49937429 -4.88482676 9.49937429 -7.11314392 7.27105713 C-7.36314392 4.77105713 -7.36314392 4.77105713 -7.11314392 2.27105713 C-4.66788983 -0.17419696 -3.33743396 0.02905749 0 0 Z " fill="#000000" transform="translate(118.11314392089844,206.72894287109375)"/>
<path d="M0 0 C1.39025391 -0.02126953 1.39025391 -0.02126953 2.80859375 -0.04296875 C7.57743837 0.35612605 10.89910129 2.20250845 14.5625 5.1875 C14.2325 6.8375 13.9025 8.4875 13.5625 10.1875 C9.05389073 11.43989146 9.05389073 11.43989146 6.69921875 10.23046875 C2.85487012 8.35397682 -1.25807534 8.75327406 -5.4375 9.1875 C-8.60711356 10.46883314 -10.01570229 11.7075233 -12.25 14.25 C-14.00636986 18.59470438 -14.10392925 22.5669239 -13.4375 27.1875 C-11.27446971 31.59367281 -9.02635076 34.3519597 -4.4375 36.1875 C1.29795076 36.93969026 4.67185248 36.31208036 9.5625 33.1875 C12.375 33.5 12.375 33.5 14.5625 34.1875 C15.0575 36.6625 15.0575 36.6625 15.5625 39.1875 C9.82090936 44.25360939 4.62604229 45.695774 -2.91796875 45.4921875 C-10.07251529 44.62698652 -14.61680263 40.65909468 -19.02734375 35.18359375 C-23.02265396 29.52818234 -23.46652412 22.90802918 -22.4375 16.1875 C-19.70941504 9.3333079 -15.78637711 4.83222575 -9.4375 1.1875 C-6.27671828 0.15810136 -3.31388935 0.0229812 0 0 Z " fill="#090909" transform="translate(169.4375,23.8125)"/>
<path d="M0 0 C1.3096875 -0.01224609 2.619375 -0.02449219 3.96875 -0.03710938 C5.84046875 -0.04000977 5.84046875 -0.04000977 7.75 -0.04296875 C8.89984375 -0.04707764 10.0496875 -0.05118652 11.234375 -0.05541992 C14 0.1875 14 0.1875 16 2.1875 C15.46428571 5.72321429 15.46428571 5.72321429 14 7.1875 C12.31391034 7.25955511 10.62499341 7.27136068 8.9375 7.25 C8.01839844 7.24097656 7.09929687 7.23195313 6.15234375 7.22265625 C5.44207031 7.21105469 4.73179688 7.19945312 4 7.1875 C4.01047363 8.2069873 4.02094727 9.22647461 4.03173828 10.27685547 C4.06788727 14.05253602 4.09088177 17.82820121 4.10986328 21.60400391 C4.11993254 23.23944672 4.13358881 24.87487149 4.15087891 26.51025391 C4.17508705 28.8584437 4.18647357 31.20639588 4.1953125 33.5546875 C4.20563507 34.28807343 4.21595764 35.02145935 4.22659302 35.77706909 C4.22699368 37.58212697 4.12212755 39.3865783 4 41.1875 C3.34 41.8475 2.68 42.5075 2 43.1875 C-2.55555556 42.63194444 -2.55555556 42.63194444 -4 41.1875 C-4.15980437 38.74141002 -4.25929447 36.32018942 -4.31640625 33.87109375 C-4.33718735 33.14003922 -4.35796844 32.40898468 -4.37937927 31.65577698 C-4.44495024 29.31228344 -4.50379432 26.96867461 -4.5625 24.625 C-4.60567808 23.03970145 -4.64929213 21.45441471 -4.69335938 19.86914062 C-4.8006392 15.97537963 -4.9018849 12.08150228 -5 8.1875 C-6.06541016 8.09662109 -6.06541016 8.09662109 -7.15234375 8.00390625 C-8.07144531 7.92011719 -8.99054688 7.83632813 -9.9375 7.75 C-11.31228516 7.62818359 -11.31228516 7.62818359 -12.71484375 7.50390625 C-15 7.1875 -15 7.1875 -16 6.1875 C-16.04063832 4.52132885 -16.042721 2.85361905 -16 1.1875 C-11.42337784 -1.10081108 -5.02502708 0.00247295 0 0 Z " fill="#060606" transform="translate(87,24.8125)"/>
<path d="M0 0 C7.59 0 15.18 0 23 0 C23.061875 2.536875 23.12375 5.07375 23.1875 7.6875 C23.21481201 8.47729248 23.24212402 9.26708496 23.27026367 10.08081055 C23.32344207 14.60326123 22.90046466 17.48685291 20 21 C15.99663535 23.68797341 11.65990055 23.81427328 7 23 C3.92938032 21.28631391 1.59549274 19.19098548 0 16 C-0.07187519 13.28024285 -0.0927862 10.59325368 -0.0625 7.875 C-0.041875 5.27625 -0.02125 2.6775 0 0 Z " fill="#010101" transform="translate(233,233)"/>
<path d="M0 0 C2.96463054 2.50169003 3.97016436 5.03701799 5.26171875 8.65625 C5.65810547 9.76097656 6.05449219 10.86570312 6.46289062 12.00390625 C6.86701172 13.15761719 7.27113281 14.31132813 7.6875 15.5 C8.10322266 16.65371094 8.51894531 17.80742188 8.94726562 18.99609375 C12 27.58786176 12 27.58786176 12 31 C4.41 31 -3.18 31 -11 31 C-8.91862906 24.06209685 -6.77190041 17.25749416 -4.375 10.4375 C-4.06304687 9.53708984 -3.75109375 8.63667969 -3.4296875 7.70898438 C-3.130625 6.85498047 -2.8315625 6.00097656 -2.5234375 5.12109375 C-2.25450684 4.3520874 -1.98557617 3.58308105 -1.70849609 2.79077148 C-1 1 -1 1 0 0 Z " fill="#F0ECEA" transform="translate(244,40)"/>
<path d="M0 0 C3.3125 0.125 3.3125 0.125 6 1 C6.39969079 3.55705796 6.36995784 5.36516222 5.04931641 7.63134766 C3.70111542 9.42294782 2.28264382 11.1196643 0.8125 12.8125 C0.32974609 13.40998047 -0.15300781 14.00746094 -0.65039062 14.62304688 C-2.83712314 17.19135687 -4.28931998 18.85472864 -7.65625 19.54296875 C-11.43511776 18.66753105 -13.18746673 16.61631002 -16 14 C-15.67 12.35 -15.34 10.7 -15 9 C-12.39417629 8.06934867 -11.35801776 7.85082593 -8.75 8.9375 C-8.1725 9.288125 -7.595 9.63875 -7 10 C-6.773125 9.46375 -6.54625 8.9275 -6.3125 8.375 C-4.46871046 5.03861892 -2.75414907 2.69155478 0 0 Z " fill="#0A0A0A" transform="translate(85,201)"/>
<path d="M0 0 C7.59 0 15.18 0 23 0 C23 1.98 23 3.96 23 6 C15.41 6 7.82 6 0 6 C0 4.02 0 2.04 0 0 Z " fill="#FFF8F3" transform="translate(233,227)"/>
<path d="M0 0 C4.09738051 3.34926328 8.01098824 6.5762626 11 11 C11 11.99 11 12.98 11 14 C9.3973218 14.10824843 7.79254252 14.18570645 6.1875 14.25 C5.29417969 14.29640625 4.40085937 14.3428125 3.48046875 14.390625 C1 14 1 14 -0.76953125 12.171875 C-2.3592347 9.36592224 -2.86571564 7.22282468 -3 4 C-1.5625 1.625 -1.5625 1.625 0 0 Z " fill="#F2F2F2" transform="translate(118,47)"/>
<path d="M0 0 C3.15842999 2.57923366 3.99251691 5.35531286 5.1875 9.1875 C5.53167969 10.27417969 5.87585938 11.36085938 6.23046875 12.48046875 C6.48441406 13.31191406 6.73835937 14.14335938 7 15 C3.04 15 -0.92 15 -5 15 C-4.23239022 11.16195111 -3.40495674 8.23779856 -1.9375 4.6875 C-1.39416016 3.36298828 -1.39416016 3.36298828 -0.83984375 2.01171875 C-0.56269531 1.34785156 -0.28554687 0.68398438 0 0 Z " fill="#111217" transform="translate(244,40)"/>
<path d="M0 0 C3 0.125 3 0.125 4 1.125 C4.1875 4.0625 4.1875 4.0625 4 7.125 C3.34 7.785 2.68 8.445 2 9.125 C-2.55555556 8.56944444 -2.55555556 8.56944444 -4 7.125 C-4.125 4.125 -4.125 4.125 -4 1.125 C-3 0.125 -3 0.125 0 0 Z " fill="#0F0F0F" transform="translate(68,116.875)"/>
<path d="M0 0 C0.125 2.875 0.125 2.875 0 6 C-0.66 6.66 -1.32 7.32 -2 8 C-6.55555556 7.44444444 -6.55555556 7.44444444 -8 6 C-8.04080783 4.00041636 -8.04254356 1.99954746 -8 0 C-5.13822943 -1.43088528 -3.06624227 -0.59991697 0 0 Z " fill="#090909" transform="translate(72,142)"/>
<path d="M0 0 C3.125 0.375 3.125 0.375 6 1 C6.125 3.875 6.125 3.875 6 7 C5.34 7.66 4.68 8.32 4 9 C-0.55555556 8.44444444 -0.55555556 8.44444444 -2 7 C-2.1875 4.5625 -2.1875 4.5625 -2 2 C-1.34 1.34 -0.68 0.68 0 0 Z " fill="#060606" transform="translate(66,165)"/>
<path d="M0 0 C3 0.125 3 0.125 4 1.125 C4.125 4.125 4.125 4.125 4 7.125 C3 8.125 3 8.125 0 8.25 C-3 8.125 -3 8.125 -4 7.125 C-4.125 4.125 -4.125 4.125 -4 1.125 C-3 0.125 -3 0.125 0 0 Z " fill="#080808" transform="translate(68,92.875)"/>
<path d="M0 0 C2.72107452 2.3500189 3.96702492 4.55674975 5 8 C4.67 8.99 4.34 9.98 4 11 C3.731875 10.360625 3.46375 9.72125 3.1875 9.0625 C2.11332248 6.66868314 2.11332248 6.66868314 -1 6 C-1.66 7.32 -2.32 8.64 -3 10 C-2.69201674 8.51988629 -2.378482 7.04092675 -2.0625 5.5625 C-1.88847656 4.73878906 -1.71445313 3.91507813 -1.53515625 3.06640625 C-1 1 -1 1 0 0 Z " fill="#7176B2" transform="translate(244,40)"/>
</svg>
